<svg xmlns="http://www.w3.org/2000/svg" xmlns:xlink="http://www.w3.org/1999/xlink" version="1.1" width="256" height="256" viewBox="0 0 256 256" xml:space="preserve">
<g style="stroke: none; stroke-width: 0; stroke-dasharray: none; stroke-linecap: butt; stroke-linejoin: miter; stroke-miterlimit: 10; fill: none; fill-rule: nonzero; opacity: 1;" transform="translate(1.4065934065934016 1.4065934065934016) scale(2.81 2.81)">
	<path d="M 47.669 60.118 h -37.25 c -0.552 0 -1 0.447 -1 1 s 0.448 1 1 1 h 37.25 c 0.553 0 1 -0.447 1 -1 S 48.222 60.118 47.669 60.118 z" style="stroke: none; stroke-width: 1; stroke-dasharray: none; stroke-linecap: butt; stroke-linejoin: miter; stroke-miterlimit: 10; fill: rgb(0,0,0); fill-rule: nonzero; opacity: 1;" transform=" matrix(1 0 0 1 0 0) " stroke-linecap="round"/>
	<path d="M 76.68 60.118 h -8.238 c -0.553 0 -1 0.447 -1 1 s 0.447 1 1 1 h 8.238 c 0.553 0 1 -0.447 1 -1 S 77.232 60.118 76.68 60.118 z" style="stroke: none; stroke-width: 1; stroke-dasharray: none; stroke-linecap: butt; stroke-linejoin: miter; stroke-miterlimit: 10; fill: rgb(0,0,0); fill-rule: nonzero; opacity: 1;" transform=" matrix(1 0 0 1 0 0) " stroke-linecap="round"/>
	<path d="M 90 20.604 c 0 -1.323 -0.942 -2.455 -2.24 -2.69 c -4.946 -0.9 -9.258 -2.757 -12.815 -5.521 c -0.98 -0.761 -2.35 -0.761 -3.33 0 c -3.558 2.763 -7.869 4.621 -12.815 5.521 c -1.209 0.22 -2.1 1.22 -2.217 2.426 H 7.937 C 3.561 20.34 0 23.9 0 28.276 v 6.22 v 12.117 v 23.626 c 0 4.377 3.561 7.938 7.937 7.938 h 71.225 c 4.376 0 7.937 -3.561 7.937 -7.938 V 46.613 v -1.121 C 88.96 42.591 90 39.3 90 35.84 V 20.604 z M 2 35.496 h 54.559 v 0.344 v 0 c 0 0.479 0.025 0.955 0.064 1.429 c 0.015 0.181 0.04 0.36 0.061 0.539 c 0.033 0.282 0.068 0.563 0.114 0.843 c 0.038 0.234 0.084 0.466 0.132 0.698 c 0.043 0.204 0.089 0.406 0.139 0.608 c 0.069 0.283 0.142 0.564 0.225 0.843 c 0.031 0.102 0.065 0.202 0.098 0.303 c 0.501 1.581 1.222 3.092 2.145 4.509 H 2 V 35.496 z M 7.937 22.34 h 48.622 v 11.156 H 2 v -5.22 C 2 25.003 4.663 22.34 7.937 22.34 z M 79.162 76.177 H 7.937 C 4.663 76.177 2 73.514 2 70.239 V 47.613 h 59.023 c 1.646 1.946 3.695 3.659 6.095 5.038 c 1.511 0.868 3.158 1.606 4.921 2.192 c 0.754 0.251 1.58 0.256 2.342 0.033 c 0.045 -0.013 0.093 -0.019 0.137 -0.033 c 0.545 -0.181 1.08 -0.38 1.606 -0.592 c 0.373 -0.15 0.732 -0.315 1.093 -0.479 c 0.129 -0.059 0.262 -0.113 0.39 -0.174 c 2.97 -1.406 5.5 -3.282 7.489 -5.49 v 22.131 C 85.099 73.514 82.436 76.177 79.162 76.177 z M 88 35.84 c 0 3.114 -0.957 6.081 -2.668 8.699 c -0.021 0.025 -0.048 0.043 -0.066 0.071 c -1.868 2.811 -4.591 5.17 -7.856 6.854 c -0.03 0.016 -0.06 0.032 -0.09 0.048 c -0.478 0.244 -0.971 0.469 -1.472 0.683 c -0.081 0.034 -0.158 0.073 -0.239 0.106 c -0.561 0.233 -1.133 0.45 -1.719 0.644 c -0.395 0.131 -0.827 0.131 -1.22 0 c -3.215 -1.068 -6.003 -2.679 -8.232 -4.674 c -0.748 -0.669 -1.432 -1.382 -2.049 -2.132 c -0.029 -0.053 -0.054 -0.108 -0.093 -0.155 c -1.831 -2.264 -3.016 -4.8 -3.495 -7.448 c -0.017 -0.098 -0.025 -0.198 -0.041 -0.296 c -0.055 -0.343 -0.108 -0.687 -0.139 -1.034 c -0.04 -0.452 -0.063 -0.908 -0.063 -1.367 v -1.344 V 21.34 v -0.735 c 0 -0.356 0.251 -0.66 0.598 -0.723 c 5.267 -0.958 9.87 -2.946 13.685 -5.908 c 0.129 -0.101 0.284 -0.15 0.438 -0.15 s 0.31 0.05 0.438 0.15 c 3.814 2.962 8.418 4.95 13.685 5.909 C 87.749 19.945 88 20.249 88 20.604 V 35.84 z" style="stroke: none; stroke-width: 1; stroke-dasharray: none; stroke-linecap: butt; stroke-linejoin: miter; stroke-miterlimit: 10; fill: rgb(0,0,0); fill-rule: nonzero; opacity: 1;" transform=" matrix(1 0 0 1 0 0) " stroke-linecap="round"/>
	<path d="M 79.052 27.268 l -7.958 10.097 l -3.587 -4.55 c -0.341 -0.434 -0.97 -0.508 -1.404 -0.166 c -0.434 0.342 -0.508 0.97 -0.166 1.404 l 4.372 5.547 c 0.189 0.24 0.479 0.381 0.785 0.381 s 0.596 -0.141 0.785 -0.381 l 8.743 -11.094 c 0.342 -0.434 0.268 -1.063 -0.166 -1.405 C 80.022 26.759 79.395 26.835 79.052 27.268 z" style="stroke: none; stroke-width: 1; stroke-dasharray: none; stroke-linecap: butt; stroke-linejoin: miter; stroke-miterlimit: 10; fill: rgb(0,0,0); fill-rule: nonzero; opacity: 1;" transform=" matrix(1 0 0 1 0 0) " stroke-linecap="round"/>
</g>
</svg>