<svg xmlns="http://www.w3.org/2000/svg" viewBox="320 410 410 340" width="256" height="256" aria-hidden="true">
  <path d="M645.5 422.7c-36 33.8-71.6 67.6-95.5 90.8l-22.5 21.7-1.3-4.8c-4.2-15.9-10.8-27.1-22.1-37.7-8-7.5-13.4-10.7-15.5-9.2-2.7 1.9-63.5 57.2-81.6 74.1-53.3 49.9-75.4 82-68.6 99.7 5.2 13.6 26.5 20.9 51.6 17.7 11.2-1.4 25.1-5.7 33.8-10.4l6.2-3.4 9.8 9.7c17.1 17 30.7 25.8 42.1 27.2 3.6.4 10 1.8 14.1 3 10.4 3 33.8 3.8 46.6 1.5 23.9-4.1 46-14.2 67.4-30.7 11.9-9.2 24.7-22.1 41-41.4 15.5-18.3 28.4-30.7 37.3-35.9 3.7-2.1 6.7-4.2 6.7-4.6s-.7-1.3-1.5-2c-1.2-1-2.7-.5-8.2 2.8-11.3 6.7-20.3 15.2-36.1 33.9-8.2 9.9-18 21-21.8 24.9-31.3 31.9-68 49.4-103.7 49.4-10.3 0-26.2-2.1-29.4-3.8-.7-.5 3.4-4.7 11-11.2 15.6-13.5 50.9-48.8 57.6-57.6 10.3-13.6 13.7-24 12.9-39.9-.6-11.5-4.2-23.6-9.9-33.2-4-6.6-12.4-16.1-19.1-21.4l-4.8-3.7 24.8-23.9c26.9-25.9 50.8-48.6 75.7-71.8 25.9-24 29.6-27.7 29.2-28.9-1.2-3.6-5.1-.7-26.2 19.1m-140.7 77.7c16.3 17.4 22.8 46.3 14.6 64.6-5 11.3-21.3 30.2-45.9 53.4-20.6 19.4-35.9 32.2-45.5 38-15.1 9.2-39 15.4-54.5 14.3-18.4-1.4-31.5-9.8-31.5-20.1 0-9.7 12.4-30.9 28.8-49.1 14.8-16.6 46.7-47.3 83.4-80.3 19.1-17.1 34.9-31.6 35.3-32.2.9-1.5 8.3 3.9 15.3 11.4m45.7 42c12.7 12.8 19.1 26.8 20.2 44.6.6 10.8-.7 17.2-5.7 26.9-4.9 9.5-23.8 30.2-48.5 53-29.4 27.2-31.3 28.4-40.9 24.7-8.9-3.4-30-20-37.5-29.5l-3.2-4 5.8-4.2c16-11.9 48.1-42.2 65-61.4 17.4-19.7 22.3-29.5 22.3-44.3v-6.3l5.3-4.9c6.3-5.8 6-5.9 17.2 5.4"/>
  <path d="M516.5 474.6c-.7 15-.4 16.3 3.1 16.4 1.1 0 2.4-12.9 2.4-24.7 0-6-.1-6.3-2.4-6.3s-2.3.1-3.1 14.6m33.9 7.6c-11.1 13.8-10.7 13.2-8.6 15.2 1.7 1.5 2.3 1 10.3-9.1 11.9-15.1 11.3-14.1 9.9-15.8-.7-.8-1.6-1.5-2-1.5-.3 0-4.7 5-9.6 11.2M407.6 696.7c-7 11.7-7.5 12.9-6 14 1 .7 2 1.3 2.3 1.3.3-.1 3.9-5.6 7.9-12.3 7.2-11.8 7.9-14.3 4.5-15.4-.5-.2-4.4 5.4-8.7 12.4m31-3.9c-.3.5 1.8 28.9 2.3 30.9.1.2 1.3.3 2.7.3 2.5 0 2.6-.2 2.1-4.3-.4-2.3-.9-8.3-1.2-13.2-.9-12.6-1.3-14.5-3.5-14.5-1 0-2.1.3-2.4.8"/>
</svg>
