<svg xmlns="http://www.w3.org/2000/svg" width="256" height="256" viewBox="0 0 256 256" aria-hidden="true">
  <g transform="translate(1.4065934065934016 1.4065934065934016) scale(2.81)" fill="currentColor">
    <!-- ===== Package（你的原始 package）===== -->
    <path d="M 45 36.387 c -0.127 0 -0.254 -0.024 -0.375 -0.073 l -16.45 -6.646 c -0.512 -0.207 -0.76 -0.79 -0.553 -1.302 c 0.207 -0.512 0.791 -0.758 1.302 -0.553 L 45 34.309 l 39.89 -16.115 L 45 2.079 L 5.11 18.193 l 14.154 5.718 c 0.512 0.207 0.76 0.79 0.553 1.302 c -0.207 0.512 -0.791 0.759 -1.302 0.553 L 2.066 19.121 c -0.378 -0.153 -0.625 -0.52 -0.625 -0.927 s 0.248 -0.774 0.625 -0.927 l 42.56 -17.193 c 0.24 -0.097 0.509 -0.097 0.749 0 l 42.56 17.193 c 0.378 0.153 0.625 0.52 0.625 0.927 s -0.247 0.774 -0.625 0.927 l -42.56 17.194 C 45.254 36.363 45.127 36.387 45 36.387 z"/>
    <path d="M 45 90 c -0.196 0 -0.392 -0.058 -0.559 -0.171 C 44.165 89.644 44 89.332 44 89 V 35.387 c 0 -0.408 0.248 -0.774 0.625 -0.927 l 42.559 -17.194 c 0.309 -0.124 0.657 -0.088 0.935 0.098 c 0.275 0.186 0.44 0.497 0.44 0.829 v 53.613 c 0 0.407 -0.247 0.774 -0.625 0.927 l -42.56 17.193 C 45.254 89.976 45.126 90 45 90 z M 46 36.062 v 51.456 l 40.56 -16.386 V 19.676 L 46 36.062 z"/>
    <path d="M 45 90 c -0.126 0 -0.254 -0.024 -0.375 -0.073 L 2.066 72.733 c -0.378 -0.152 -0.625 -0.52 -0.625 -0.927 V 18.193 c 0 -0.333 0.165 -0.643 0.441 -0.829 c 0.275 -0.186 0.625 -0.223 0.934 -0.098 l 16.449 6.646 c 0.512 0.207 0.76 0.79 0.553 1.302 c -0.207 0.513 -0.789 0.759 -1.302 0.553 L 3.44 19.676 v 51.456 L 44 87.518 V 36.062 l -15.824 -6.393 c -0.512 -0.207 -0.76 -0.79 -0.553 -1.302 c 0.207 -0.511 0.791 -0.758 1.302 -0.553 l 16.45 6.646 C 45.752 34.613 46 34.979 46 35.387 V 89 c 0 0.332 -0.165 0.644 -0.441 0.829 C 45.392 89.942 45.196 90 45 90 z"/>
    <path d="M 28.55 52.177 c -0.126 0 -0.254 -0.024 -0.375 -0.073 L 18.515 48.2 c -0.378 -0.152 -0.625 -0.52 -0.625 -0.927 V 24.839 c 0 -0.408 0.248 -0.774 0.625 -0.927 L 61.074 6.718 c 0.24 -0.097 0.51 -0.097 0.75 0 l 9.661 3.903 c 0.378 0.153 0.625 0.52 0.625 0.927 s -0.247 0.774 -0.625 0.927 L 29.55 29.416 v 21.761 c 0 0.332 -0.165 0.644 -0.441 0.829 C 28.942 52.119 28.747 52.177 28.55 52.177 z M 19.89 46.599 l 7.661 3.096 V 28.742 c 0 -0.408 0.248 -0.774 0.625 -0.927 L 68.44 11.548 l -6.991 -2.824 L 19.89 25.513 V 46.599 z"/>
    <path d="M 52.542 78.351 c -0.396 0 -0.77 -0.236 -0.927 -0.625 c -0.207 -0.513 0.04 -1.096 0.552 -1.302 l 9.661 -3.902 c 0.513 -0.207 1.095 0.04 1.302 0.552 c 0.207 0.513 -0.04 1.096 -0.552 1.302 l -9.661 3.902 C 52.794 78.327 52.667 78.351 52.542 78.351 z"/>
    <path d="M 52.542 72.119 c -0.396 0 -0.77 -0.236 -0.927 -0.625 c -0.207 -0.513 0.04 -1.096 0.552 -1.302 l 9.661 -3.903 c 0.513 -0.207 1.095 0.04 1.302 0.552 c 0.207 0.513 -0.04 1.096 -0.552 1.302 l -9.661 3.903 C 52.794 72.096 52.667 72.119 52.542 72.119 z"/>
    <path d="M 52.542 65.887 c -0.396 0 -0.77 -0.236 -0.927 -0.625 c -0.207 -0.513 0.04 -1.096 0.552 -1.302 l 9.661 -3.902 c 0.513 -0.207 1.095 0.04 1.302 0.552 c 0.207 0.513 -0.04 1.096 -0.552 1.302 l -9.661 3.902 C 52.794 65.863 52.667 65.887 52.542 65.887 z"/>

    <!-- ===== Return Arrow（右下角叠加：更小 + 不贴边）===== -->
    <path
      d="M 44.66 18.269 H 26.546 l 9.734 -9.734 c 1.953 -1.953 1.953 -5.119 0 -7.071 c -1.953 -1.952 -5.118 -1.952 -7.071 0 l -18.27 18.27 c -0.013 0.013 -0.021 0.028 -0.033 0.04 c -0.217 0.222 -0.416 0.462 -0.589 0.721 c -0.086 0.129 -0.145 0.268 -0.218 0.402 c -0.083 0.152 -0.175 0.298 -0.241 0.459 c -0.07 0.169 -0.11 0.345 -0.161 0.519 c -0.041 0.139 -0.094 0.271 -0.123 0.415 c -0.129 0.647 -0.129 1.313 0 1.959 c 0.029 0.144 0.082 0.276 0.123 0.415 c 0.051 0.174 0.091 0.35 0.161 0.519 c 0.067 0.161 0.159 0.307 0.241 0.459 c 0.073 0.134 0.132 0.274 0.218 0.402 c 0.173 0.259 0.372 0.499 0.589 0.721 c 0.012 0.013 0.02 0.028 0.033 0.04 l 18.27 18.27 c 0.977 0.976 2.256 1.464 3.536 1.464 c 1.28 0 2.559 -0.488 3.536 -1.464 c 1.953 -1.953 1.953 -5.119 0 -7.071 l -9.734 -9.734 H 44.66 c 14.262 0 25.865 11.603 25.865 25.865 C 70.524 68.397 58.922 80 44.66 80 H 31.497 c -2.761 0 -5 2.238 -5 5 s 2.239 5 5 5 H 44.66 c 19.776 0 35.865 -16.089 35.865 -35.865 S 64.436 18.269 44.66 18.269 z"
      transform="translate(60 35) scale(0.3)"
    />
  </g>
</svg>