<svg xmlns="http://www.w3.org/2000/svg" viewBox="331 410 479.4 440.3" width="256" height="256" aria-hidden="true">
  <path d="M365.3 444.3 331 478.5v310.6l2.5 2.4 2.4 2.5h194.9c190.5 0 195 0 197.3-1.9l2.4-1.9.5-49.7.5-49.6 3.1 5.4c4.1 7.2 8 16.8 10.1 25.3 2.3 9.5 2.3 31.3 0 40.8-9.1 36.6-38 63.8-74.4 70.1-4.7.8-10.8 1.5-13.5 1.5-3.9 0-5.4.5-7.3 2.5-3.3 3.3-3.3 7.8.1 11.2l2.6 2.6 18.6-.6c32.6-1 53.9-7.5 79.5-24.4 9.3-6.1 29.9-26.7 36-36 11.1-16.7 17.8-32.6 21.9-51.6 1.8-8.3 2.2-13.5 2.2-27.7 0-18.7-1.1-26.4-6.1-42.5-10.3-32.6-35.1-62.9-65.4-79.6l-7.9-4.4v-98l24-24 24-24V602h16V414.9l-2.5-2.4-2.4-2.5H399.5zm162.2 5.7-24 24h-145l24-24 24-24h145zm45.7 2.3L547 478.6V538h-32v-52.5l29.7-29.7 29.8-29.8h24.9zm170.3-2.3-24 24h-145l24-24 24-24h145zM499 519.5v29.6l2.5 2.4 2.4 2.5h54.2l2.4-2.5 2.5-2.4V490h152v43.6c0 38.8-.2 43.5-1.5 43-9-3.4-29.9-6.6-43.7-6.6H659v-43.1l-2.6-2.5c-1.9-2-3.3-2.5-5.7-2.2-4.6.6-118.5 82.1-119.3 85.4-.3 1.3-.3 3.5 0 4.8.8 3.3 114.7 84.8 119.3 85.4 2.4.3 3.8-.2 5.7-2.2l2.6-2.5v-21.6c0-17.5.3-21.5 1.4-21.5.7 0 5.2.7 9.9 1.5 14.8 2.6 27.8 8.1 39.5 16.7l5.2 3.9V778H347V490h152zM645.7 584c1.9 1.5 5 1.8 22.5 2.3 21.4.6 29 1.7 42.8 6.4 51.4 17.5 86.1 68 83.7 121.8-1.4 30.3-11.5 55.3-32.3 79.1-5.5 6.3-18.4 17.1-25.7 21.4l-4.2 2.5 4.6-5.5c10.5-12.6 18.3-27.7 22.6-43.7 2.3-8.7 2.6-11.7 2.6-26.3 0-14.7-.3-17.6-2.6-26.5-3.2-11.9-11.6-29.4-18.6-38.6-19.2-25.3-49.2-41.1-81.1-42.6-10.6-.5-11.7-.4-14 1.5-2.5 2-2.5 2.3-3 20.2l-.5 18.1-44.8-32-44.8-32 3.3-2.4c1.8-1.4 22-15.9 44.8-32.1l41.5-29.7.5 18.2c.5 17.1.6 18.2 2.7 19.9"/>
  <path d="M363 722v8h96v-16h-96zm0 32v8h96v-16h-96z"/>
</svg>
