<svg xmlns="http://www.w3.org/2000/svg" version="1.0" viewBox="0 0 2400 2400"><path d="M1161.9 822.9c-28.8 5.3-53.9 21.5-68.7 44.4-6.2 9.7-10.6 19.7-14.1 32.2-5.7 20.1-6.6 29.4-6.6 66.8v33.7h-41.6c-25.9 0-42.7.4-44.6 1-5.3 1.9-6 4.7-8.3 30.1-1.9 22.7-2.7 31.4-9 101.9-7.3 80.7-18 211.4-23.2 282.3-1.5 21.4-1.8 29.4-1 31.2 1.7 3.6 5.5 5.6 14.5 7.5 13.1 2.8 28.3 6.3 65.2 14.9 12.1 2.9 24.3 5.6 27 6.2 4.9 1 21 .5 70-2.1 39.7-2.1 77.1-4 106.5-5.5 76.5-3.7 93.8-4.6 112-5.5 23.1-1.2 49.7-2.4 94-4.5 39.5-1.8 47.4-2.7 50.2-5.1 3.9-3.6 4-5.7.9-22.8-13.8-74.7-15.3-82.9-24.6-138.1-6.4-38.5-9.2-56.2-16-104-2.4-16.6-9.3-70.1-12.5-96.5-1.1-9.1-2.7-21.7-3.5-28s-2.6-21.4-4-33.5c-2.6-23.2-3.3-25.5-8.6-28.2-1.8-.9-10.9-1.3-34.1-1.3h-31.6l-.7-5.3c-6-46.6-20.5-81.7-44-106.5-7.8-8.3-20.2-18.6-28-23.2-2.2-1.4-6.9-5.2-10.5-8.5-15.8-14.8-35.2-25.4-56.7-31.1-8.2-2.1-12.5-2.6-26.8-2.9-9.3-.2-19.1 0-21.6.4m38.3 16.6c11 1.9 20.6 4.9 29.5 9.3 8 3.9 9.4 5.5 3.6 4.1-6.1-1.4-30-1-38.5.6-25.9 4.9-49.7 24.2-63.1 51-9.5 19.1-14.7 47.8-14.7 81.2v14.3h-24.8l-.6-2.8c-1.3-6.4-1.8-43.3-.7-56.7 1.8-21.6 3.5-30.3 8.8-45.5 10.5-29.6 34.4-50.3 64.8-55.9 7.9-1.4 26.4-1.2 35.7.4M1231 867c10.2 1.6 20 4.1 25.6 6.5 4.7 2.1 5.4 2.9 9.7 10.8 15.4 28.4 22.9 59.2 25.3 103.4l.7 12.3h-156.6l.6-21.3c.9-32 4.2-48.8 13.2-67.2 2.9-6.1 7.5-13.7 10.2-17 16.7-20.5 45.1-31.5 71.3-27.5m70.9 42c15.3 22.2 24.9 49.8 29.6 85.7l.7 5.3H1310v-5.8c0-14.3-3.7-44-7.6-61.4-1.9-8.6-7.2-25-11.9-37.3-1.2-3.1 4.7 3.9 11.4 13.5m-276.3 113.2c-.6 6.7-.6 7.3-3.6 53.8-2.1 32.6-8 138.1-10.5 187.5-.8 16.5-1.9 37.9-2.5 47.5-.5 9.6-1.4 27.4-2.1 39.5l-1.1 22-8.2 8.5c-4.5 4.7-14.6 15.2-22.4 23.4-14.2 14.9-14.3 15-13.8 11 .3-2.1 1-9.8 1.6-16.9.5-7.2 2.1-26.3 3.5-42.5s3.4-40.8 4.5-54.5c1.1-13.8 3.2-38.1 4.5-54 1.3-16 2.9-34.6 3.5-41.5s2.4-27.6 4.1-46c1.6-18.4 3.4-38.2 3.9-44 .8-8.5 4.9-52.6 8.6-92.8l.7-7.2h29.9zm91.4 5.5v11.8l-4.7 1.9c-6.9 2.9-14.6 10.8-17.2 17.9-2.5 7-2.8 17.3-.6 23.8 6.5 18.6 28.5 28 46.1 19.8 6.3-3 13.9-10.6 16.7-16.7 3.1-6.7 3.1-21.6 0-28.4-3-6.5-9.2-13-15.5-16l-5.3-2.6.3-11.6.3-11.6h195.6l.6 8.2c1.2 15.2 1.5 14.4-5 17.7-11.1 5.6-17.2 14.8-18.1 27.2-2.3 32 35.4 49.1 58.1 26.4 10.5-10.4 12-29.4 3.4-42.1-3.6-5.4-11.7-12-15.8-12.9-2.5-.6-2.7-1-3.3-8.2-.3-4.2-.6-9.6-.6-12v-4.3h55l.4 2.2c.3 1.3 1.6 11.7 3 23.3 1.4 11.5 3.5 28.6 4.6 38 1.1 9.3 2.5 20.1 3 24 .6 3.8 1.7 12.6 2.5 19.5 8.1 66.8 23.6 162.5 46.1 286 2.5 13.5 4.8 25.9 5.1 27.6l.5 3.2-7.8.6c-4.4.3-18.2 1-30.9 1.6-12.6.6-31.1 1.5-41 2s-24.3 1.2-32 1.5-36.7 1.7-64.5 3c-51 2.5-87.8 4.3-144.5 7-46.3 2.3-69 3.4-78.8 4-6.6.4-8.8.3-9.2-.7-1.1-3.1-6.8-70.4-10-117.8-2.3-34.4-5.3-95-6.5-130-.6-17.3-1.5-43.9-2.1-59-.5-15.1-1.2-51.9-1.6-81.8l-.6-54.2h74.3zm25.1 35.5c2.3 4.5 2.5 12.7.5 16.7-2.5 4.7-8.1 8.9-13 9.6-11.1 1.7-20.6-6.4-20.6-17.7 0-4.8 3.3-12.4 6.1-13.9 1.6-.8 1.9-.6 1.9 1.7 0 3.2 5.9 9.4 8.9 9.4 5.5 0 10.1-5.1 10.1-11.3 0-2 0-2 2.1-.1 1.2 1 3 3.6 4 5.6m192.3-2.8c.8 4.3 5.7 8.6 9.7 8.6 3.9 0 7.6-3.7 8.4-8.4.8-4.3 1.4-4.4 4.5-1.1 5.1 5.4 5.5 17.2.8 23.5-2.6 3.6-9.2 7-13.6 7-3.8 0-9.8-2.3-12.5-4.8-6.9-6.2-7.6-18.9-1.3-26 2.6-3 3.3-2.8 4 1.2M1033 1226.5c2.6 87.6 8.6 190.5 11.7 202 1.3 4.9-2.2-1.7-14.4-27l-13-27 1.8-39c1-21.5 2.8-59.3 3.9-84 1.1-24.8 2.7-56 3.5-69.5s1.7-30.6 2-38c1.1-23.6 1.9-19.4 2.6 13.5.4 17.6 1.2 48.6 1.9 69m-14.8 176.3c12 24.4 27.2 53.8 28.8 55.7 1.4 1.7 1.3 1.8-1 1.3-6.9-1.5-85.6-21.1-85.9-21.4-.5-.4 48.9-51 49.9-51.2.3-.1 4 7 8.2 15.6"/><path d="m1149 1151.5-13.5 1 4.3 1.9c4.7 2.1 9.9 7.4 10.7 10.9.3 1.2.4 39.6.3 85.3l-.3 83-2.7 4.1c-1.7 2.7-4.3 4.8-7.9 6.5l-5.2 2.4 21.9 1.2c12 .7 28.3 1.2 36.1 1.2h14.2l4.2 5.7c14 19.2 33.3 28.7 57.9 28.6 10.2 0 12.6-.4 20.8-3.2 21.6-7.3 36.5-21.8 44-43l2.7-7.6.3-67.7.3-67.8 20.2-.2c19.6-.3 20.2-.4 20.5-2.4.6-4.4.1-4.4-52.4-4.2l-49.9.3-.3 3.2-.3 3.3h40.2l-.3 71.2-.3 71.3-2.4 5.8c-4.4 11-14.9 21.1-26 25-2.5.9-7.8 2.2-11.7 2.9-13.9 2.3-30.1-3-40.6-13.2-7.5-7.3-7.5-8.7 0-9.5 22.7-2.4 34.4-5.1 47.1-11.2 19.4-9.2 27-22 25.9-43.7-.6-10.9-3.1-18-9.3-26.4-10.4-14.3-31.7-24.2-54.8-25.8-5.1-.3-9.9-.8-10.7-1-.9-.3 1.2-1.9 5.2-3.9 21.8-10.7 31.9-27 28.2-45.1-4.1-20-21.9-32.7-53.4-38.2-11.3-1.9-42.5-2.3-63-.7m48.8 2.5c20.2 2.2 33.9 7.5 41.3 15.9 2.2 2.5 5.7 7.9 7.7 12.1 3.1 6.4 3.7 8.7 4 16.2.6 11-1.9 18.5-8.5 25.8-4.6 5.1-13.8 11.3-18.5 12.5l-2.8.7v-18.3c0-17.2.2-18.7 2.3-22.4 1.3-2.3 3.9-4.9 6-6 2-1.1 3.7-2.3 3.7-2.8 0-.4-10.3-.7-23-.7-12.6 0-23 .3-22.9.7 0 .5 1.9 2.2 4.2 3.8 7.6 5.6 7.8 6.1 7.8 33.7v24.3l-5.1 5.3c-6.8 7.1-6.3 8.6.8 2.2 3.1-2.8 9.5-7 14-9.2 7.3-3.5 9.5-4.1 17-4.6 24.1-1.3 49.7 14.7 57.6 36 8.1 21.7.9 44.5-17.2 55.1-10 5.8-19.1 8.4-33 9.3l-8.9.7-1.6-6.6c-1.5-5.6-1.7-12.8-1.7-47.5 0-22.5-.3-41.1-.6-41.4-1-1.1-7.8 1.4-12.9 4.6-9.2 6-8.5 2.8-8.5 37.8 0 32.1.7 40.7 4.1 48.6 1.1 2.4 1.9 4.6 1.9 4.8s-7.2.4-16 .4h-16v-192h7.5c4.2 0 11.9.5 17.3 1"/></svg>
