<svg xmlns="http://www.w3.org/2000/svg" version="1.0" viewBox="0 0 2048 3072"><path d="M983 1159.5c-32.6 6.5-59.1 27.1-73.1 56.9-4.7 10.1-9.3 26.3-11.6 41-1.5 9-1.8 17.4-1.8 44.9v33.7h-42.3c-46.2 0-46.8.1-49 5.7-1.1 2.7-2 10.1-4.1 36.3-.6 6.3-2.6 29.3-4.6 51-1.9 21.7-4.6 52.3-6 68s-2.9 33.4-3.5 39.5c-3.1 33.7-17.1 210.2-18.6 234.5-.6 10.4-.6 10.6 2 13.7 2 2.4 4 3.4 8.4 4.3 3.1.7 16.3 3.7 29.2 6.6 12.9 3 34.3 8 47.5 11l24 5.6 13-.6c20-1 104.5-5.2 181.5-9.1 90.5-4.5 143.6-7.1 185.5-9 18.7-.9 36.9-2 40.4-2.5 6.8-.9 10.5-3.3 11.5-7.5.3-1.3-.7-9.4-2.3-18.1-30.1-163.1-42.9-248-60.5-400.4-1.3-11.3-2.9-21.7-3.6-23.1-2.6-5.7-3.9-5.9-38.7-5.9h-31.9l-1.8-11.8c-5-34.1-16.2-64.8-31.1-85.7-9.6-13.5-24.8-27.9-38.7-36.8-3.1-2-9-6.6-13-10.3-17.4-16-41.3-27.9-64.2-31.9-10.7-1.8-33.4-1.9-42.6 0m50.5 17.9c5.5 1.5 14 4.6 18.9 6.9l8.9 4.3-16.2-.4c-24.7-.7-36.8 2-53.3 11.8-7.8 4.7-19.4 15.2-25.6 23.3-16.6 21.4-25.2 55-25.2 97.9v14.8h-24.9l-.8-4.8c-1.3-8-.9-54.7.5-66.2 2.8-21.4 9.6-41.9 18.3-54.7 10.5-15.3 26.2-27 43.6-32.3 11.2-3.4 15.8-3.9 31.3-3.5 11.7.2 16.5.8 24.5 2.9m23.5 26.1c9.6 1.4 21.3 4.6 26.1 7.1 4.9 2.5 17.9 29.7 22.8 47.5 5 18.4 8.3 40.6 9.7 65.1l.7 12.8H960v-15.3c0-30.5 4.5-55 13.5-73.2 10.6-21.5 25.2-34.6 46.5-41.4 12.6-4.1 22.9-4.8 37-2.6m68.4 40.9c13.8 19.1 23.4 44.8 28.6 76.7 1.1 6.8 2 13 2 13.6 0 1-2.9 1.3-11 1.3h-11v-6.8c0-8.2-2.4-31.7-4.4-44.5-2.9-17.5-8-36.1-13.6-49.3-1.1-2.5-2-4.9-2-5.2 0-.9 4.2 4.3 11.4 14.2m-275.8 113.8c-.6 6.1-2 27.9-5.1 77.3-2.2 36.1-6.4 112.3-12.1 222l-2.6 50.9-18.2 19.1c-10.1 10.4-20.1 21-22.4 23.5l-4.2 4.5.5-4.5c.3-2.5 2.4-26.3 4.6-53 8.6-104.6 15.8-190.7 18.9-224 2.6-27.5 7.2-77.9 9.6-103.3l1.8-18.7h29.8zm91.4 5.5v11.8l-5.5 2.4c-15.2 6.6-22.6 26-16.3 42.8 3.2 8.6 11.2 16.3 20.2 19.3 16.3 5.4 33.9-1.7 41.2-16.7 3.9-7.9 4.5-19.4 1.4-27.5-2.7-7.3-9.6-15-16.3-18.2l-5.2-2.4.3-11.6.3-11.6h195.6l.6 8.2c1.2 15.1 1.4 14.4-4.8 17.4-27.4 13.5-23.3 55 6.2 63 16.7 4.5 34.6-4.1 40.3-19.4 2.4-6.2 2.9-17 1.1-23-2.7-8.9-11.9-19.2-19.2-21.4-3.3-.9-3.9-1.6-3.9-3.8 0-1.5-.3-6.8-.6-11.8l-.7-9.2h55.1l.6 2.7c.3 1.6 1.9 14.3 3.6 28.3 12.7 104.6 19.9 156.1 32 227.5 11.9 70.5 11.6 68.5 23.1 131.5 2.8 15.7 5.4 29.7 5.6 31.2l.5 2.6-8.4.6c-4.5.3-18.2 1-30.3 1.6s-31.2 1.5-42.5 2c-11.3.6-35.1 1.7-53 2.5s-51.2 2.4-74 3.5-50.7 2.5-62 3c-24.1 1.2-95 4.7-120 6-9.6.4-17.7.7-18.1.4-.6-.4-.9-2.8-3.4-28.9-5.6-59.7-11.2-151.9-13.5-220.5-.6-17.3-1.5-43.4-2-58-.6-14.6-1.3-51.1-1.7-81.3l-.6-54.7H941zm25.1 35.5c2.3 4.4 2.5 12.7.5 16.6-3.9 7.5-13 11.6-20.5 9.4-5.1-1.6-10-5.7-11.7-9.9-2.9-6.8-1.2-15.5 4-20.2l2.6-2.4v2.7c0 3.7 5.8 9.6 9.5 9.6 1.4 0 3.5-.5 4.6-1 2.4-1.4 4.9-6.1 4.9-9.6 0-2.7 0-2.7 2.1-.8 1.2 1 3 3.6 4 5.6m192.3-2.8c1.2 6.3 8.5 10.3 13.7 7.6 2.2-1.2 4.9-6.1 4.9-9 0-2.6 1.1-2.5 3.8.2 7.8 8.4 5 23.8-5.4 28.8-14.7 7.2-30.3-8.4-23.9-23.7 1.6-3.8 4.3-7.3 5.5-7.3.4 0 1.1 1.5 1.4 3.4M856 1526.5c2.6 102 8 207.5 12 233.5.4 3 .7 5.6.5 5.8s-1.7-2.5-3.3-6c-1.7-3.5-7.7-16-13.5-27.9l-10.5-21.6.9-16.9c.4-9.3 1.3-27.3 1.9-39.9 3.5-78.3 5.2-112.9 6.5-135.5.8-14 1.8-31.4 2.1-38.5.7-17.3 1.9-20.8 2.1-6.5.1 6.3.7 30.4 1.3 53.5m-12.8 214.3c12.2 24.8 26.2 51.7 27.7 53.6.7.9 1.1 1.6.8 1.6-1.1 0-87.2-21.3-87.6-21.7-.5-.3 48.9-50.9 49.9-51.1.3 0 4.4 7.9 9.2 17.6"/><path d="m972.5 1487.4-13 1.1 4.3 1.9c4.7 2.1 9.9 7.4 10.7 10.9.3 1.2.4 39.6.3 85.3l-.3 83-2.7 4.1c-1.8 2.7-4.4 4.8-8 6.5l-5.3 2.5 16.5.9c9.1.4 17.7.9 19.3 1 1.5.1 10.3.2 19.6.3l17 .1 5.5 7.2c11.5 15.1 27.2 24.1 46.5 26.8 23.7 3.2 49.4-6.9 63.3-24.8 6-7.8 8.5-12.2 11.6-21.1l2.7-7.6.3-67.8.3-67.7h18.9c10.3 0 19.5-.3 20.4-.6 2-.8 2.1-3.8.2-5.3-.9-.8-15.2-1-51.2-.9l-49.9.3-.3 3.2-.3 3.3h40.1v68.8c0 73.7 0 74.5-5.1 84.4-3.1 6.1-12.5 14.9-19.3 18.2-3.3 1.5-9.9 3.5-14.7 4.4-7.9 1.4-9.4 1.4-16.8-.1-4.4-.9-10.6-2.8-13.8-4.3-6.1-2.9-17.3-13.1-17.3-15.7 0-1.1 1.6-1.7 5.8-2.2 22.7-2.4 34.4-5.1 47.1-11.2 14.7-7 22.3-15.9 25.2-29.5 1.7-7.6.6-22.2-2-29-8.1-20.9-31.9-35.4-61.4-37.4-5.1-.3-9.9-.8-10.7-1-.9-.3 1.2-1.9 5.2-3.9 21.8-10.7 31.9-27 28.2-45.1-4.2-20.3-22.7-33.1-55.4-38.5-10-1.6-45.4-1.9-61.5-.5m49 2.6c26.4 2.9 40.4 10.1 47.7 24.5 8.7 17 7.6 33.8-2.9 45.5-4.6 5.1-13.8 11.3-18.5 12.5l-2.8.7v-18.3c0-17.2.2-18.7 2.3-22.4 1.3-2.3 3.9-4.9 6-6 2-1.1 3.7-2.3 3.7-2.8 0-.4-10.3-.7-23-.7-12.6 0-23 .3-22.9.7 0 .5 1.9 2.2 4.2 3.8 7.7 5.6 7.8 6.2 7.8 33.5v24.1l-5.1 5.6c-6.7 7.4-6.3 8.7.8 2.3 17.1-15.3 37.8-18 59.7-7.6 19 9 30.7 25.1 32.2 44.5 2.1 28.2-20.3 48.8-53.9 49.4l-8.3.2-1.5-4c-1.2-3.3-1.5-11.4-1.8-46.5-.1-23.4-.4-43-.7-43.7-.6-1.7-6.9.3-13 4.1-9.2 6-8.5 2.8-8.5 37.8 0 32.1.7 40.7 4.1 48.6 1.1 2.4 1.9 4.6 1.9 4.8s-7.2.4-16 .4h-16v-192h7.8c4.2 0 11.8.5 16.7 1"/></svg>