<svg xmlns="http://www.w3.org/2000/svg"
     viewBox="482.5 480.9000244140625 511 511.9608154296875"
     width="256" height="256" aria-hidden="true">
  <path d="M594.5 481.7c-55.3 7.2-98.4 46.9-110.2 101.5-1.7 7.7-1.8 16.2-1.8 110v101.6l3 4.3c1.7 2.3 4.8 5.2 7 6.3 3.9 2 5.5 2.1 55.3 2.4l51.2.3v68.2c0 42.8.4 70.6 1.1 74.7 3.2 20 20.3 37.5 40.1 41 3.7.7 29.7 1 73 .8l67.3-.3 8-2.8c14.9-5.3 27-13.9 34.8-24.9 5-7 47.8-80.7 51-87.8 2.8-6.2 2.8-17.7-.1-24.3s-10.2-14-16.5-16.8c-7.1-3.2-19.1-3.3-25.8-.3-6.2 2.9-11.6 7.8-16.1 14.9l-3.8 6V808l83.8-.2c82.7-.3 83.7-.3 87.7-2.4 2.2-1.1 5.4-4 7-6.3l3-4.3V693.2c0-95.6-.1-102.2-1.9-110.2-11-50.3-46.8-86.7-97.6-99.3-8.3-2-10.7-2.1-110.8-2.4l-102.2-.4-2.5 2.5c-3.2 3.2-3.2 7 0 10.1l2.4 2.5h97.3c80.8 0 98.8.3 106.4 1.5 48.2 7.8 85.7 45.4 92.9 93.2 1.2 7.9 1.5 23.1 1.5 78V737h-40.4c-39.3 0-40.4.1-43 2.1-3.6 2.8-3.6 8 0 10.8 2.6 2 3.7 2.1 43 2.1H979v18.8c0 17-.2 19.1-1.8 20.5-1.7 1.6-19.8 1.7-239.4 1.7-228.8 0-237.6-.1-239.1-1.8-1.5-1.6-1.7-4.6-1.7-20.5V752h185.4c175.1 0 185.5-.1 187.5-1.8 1.1-.9 2.4-3.1 2.7-4.9.5-2.6.1-3.7-1.9-5.7l-2.6-2.6H496.9l.4-72.8c.4-81.3.1-78 7.8-97.8 10.7-27.4 34.9-51.6 62.3-62.3 16.9-6.6 22.4-7.4 55.4-8 29.4-.6 29.4-.6 31.3-3 2.6-3.2 2.4-6.7-.6-9.6l-2.4-2.5-26.8.1c-14.7.1-28.1.4-29.8.6M649 827.9v20l2.6 2c3.5 2.7 5.7 2.6 9.1-.3l2.8-2.4.3-19.6.3-19.6H698v19.4c0 17.4.2 19.6 1.9 21.7 1.3 1.7 2.9 2.3 5.6 2.3s4.3-.6 5.6-2.3c1.7-2.1 1.9-4.3 1.9-21.7V808h34v18.5c0 19.6.6 22.5 4.7 24.4 3.6 1.6 5.1 1.4 7.8-1.4 2.5-2.4 2.5-2.5 2.5-22V808h35v38.7c.1 30.3.4 39.2 1.4 40.5 2.2 2.9 6.3 3.9 9.7 2.5 2.6-1 4.9-4.4 12.9-18.2 6.1-10.5 11.1-18.1 13.2-19.8 6.6-5.3 15.5-4.9 21.7 1.1 4.8 4.5 6.7 10.4 5.2 16-1.3 4.5-45.6 81.6-51.1 88.7-6.3 8.1-15 14-27 18.1-5.2 1.8-9.5 1.9-74 1.9h-68.5l-5.5-2.7c-7.5-3.7-13.7-10-17.4-17.8l-3.1-6.5-.3-71.3-.3-71.2H649z"/>
  <path d="M655 573.1c-12.8 5.8-19 20.1-14.8 34.1 1.6 5.3 8.7 13.1 14.6 15.9 8.6 4.2 21.7 2.5 28.7-3.8 15.1-13.5 12-37.4-6-45.9-6.5-3.1-16-3.2-22.5-.3m17 14.4c4.2 2.2 6 5.3 6 10.6 0 3.6-.6 5.5-2.6 7.8-7.3 8.8-21.4 3.8-21.4-7.5 0-5.6 1.2-7.9 5.3-10.4 3.8-2.4 8.7-2.6 12.7-.5m58-14.4c-12.8 5.8-19 20.1-14.8 34.1 1.6 5.3 8.7 13.1 14.6 15.9 8.6 4.2 21.7 2.5 28.7-3.8 15.1-13.5 12-37.4-6-45.9-6.5-3.1-16-3.2-22.5-.3m17 14.4c4.2 2.2 6 5.3 6 10.6 0 3.6-.6 5.5-2.6 7.8-7.3 8.8-21.4 3.8-21.4-7.5 0-5.6 1.2-7.9 5.3-10.4 3.8-2.4 8.7-2.6 12.7-.5m58-14.4c-12.8 5.8-19 20.1-14.8 34.1 1.6 5.3 8.7 13.1 14.6 15.9 8.6 4.2 21.7 2.5 28.7-3.8 15.1-13.5 12-37.4-6-45.9-6.5-3.1-16-3.2-22.5-.3m17 14.4c4.2 2.2 6 5.3 6 10.6 0 3.6-.6 5.5-2.6 7.8-7.3 8.8-21.4 3.8-21.4-7.5 0-5.6 1.2-7.9 5.3-10.4 3.8-2.4 8.7-2.6 12.7-.5m-147.3 50.9c-2.1.8-4.7 2.2-5.9 3.3-4.5 4.1-4.8 5.8-4.8 32.1 0 24.2.1 25 2.3 28.2 1.2 1.8 3.5 4.3 5 5.4 2.8 2.1 3.5 2.1 66.7 2.1s63.9 0 66.7-2.1c1.5-1.1 3.8-3.6 5.1-5.5 2.3-3.3 2.3-3.6 2-29-.3-24.4-.4-25.9-2.4-28.6-1.2-1.5-3.6-3.7-5.5-4.8-3.3-1.9-5.4-2-64.4-2.2-49.7-.2-61.7 0-64.8 1.1M797 673.5V695H679v-43h118z"/>
</svg>
