<svg xmlns="http://www.w3.org/2000/svg" viewBox="1169.0633544921875 1058.2076416015625 410.7603759765625 391.7783203125">
  <path d="M1263.5 1058.6c-27.1 3.1-49.3 13.8-66.7 32.2-17 18.1-26.4 39.9-27.5 64.2-.5 10.4-.3 12 1.5 15.7 1.2 2.2 3.4 5.1 5 6.5 1.6 1.3 19.5 10 39.8 19.3 64.5 29.4 57.8 25.8 71.7 39.1 14.7 14.1 36.4 32.4 54.5 45.9 7.2 5.4 13.2 10.2 13.2 10.5 0 .4-28 30.3-62.1 66.6-34.2 36.2-63 67.2-64 68.9-3.9 6.3-1.5 15.9 5 20.2 4.2 2.8 11.3 3.1 15.8.5 1.7-.9 31.2-28.3 65.5-60.7 34.2-32.5 64.8-61.4 67.8-64.2l5.6-5.2 70.4 64.4c38.7 35.5 71.8 65.1 73.6 66 4.5 2.1 12.7 1.9 17.3-.5 9.6-4.8 13.6-16 9.2-25.5-1.1-2.4-26.7-31-65.2-72.9-34.9-37.9-63.5-69.3-63.7-69.7-.2-.5 11.1-12.7 25.1-27.1 29.4-30.4 46.1-48.3 74.8-80.3 11.4-12.7 22.4-24.6 24.4-26.5 10.9-10.2 26-34.7 25.3-41-.4-3.6-4.1-3.8-7.9-.5-4.4 3.7-7.5 5.1-20.7 9.6-6.4 2.2-13.6 5.1-15.9 6.5-9.1 5.3-76.9 67.2-117.4 107.2l-16.6 16.4-10.1-13.3c-13.4-17.9-25.4-32.2-43-51.3l-14.7-15.8-21.8-47.7c-23.9-52.3-24.9-53.9-34.1-56.6-4.8-1.4-7.5-1.6-14.1-.9m15.6 9.7c3 2 5.9 7.8 25.1 49.7l21.7 47.5-3.7 3.8c-2.8 2.9-3.9 3.4-4.8 2.5-.6-.7-11.2-16.9-23.4-36.1-12.2-19.1-22.8-34.7-23.4-34.7s-2.1.8-3.4 1.8l-2.2 1.7 23.1 36c12.8 19.8 23.4 36.7 23.6 37.5s-1.4 3.3-3.7 5.5l-4 3.9-23-22.9-23-23-2.7 2.8-2.8 2.7 23 23 22.9 23-4.4 4.5c-2.4 2.5-4.7 4.5-5.1 4.5s-17.2-10.6-37.5-23.6l-36.7-23.7-1.8 2.4c-1 1.3-1.9 2.8-1.8 3.4 0 .7 47.1 31.6 71.2 46.7 1.3.8-4.9 7.8-6.9 7.8-1.5 0-89.7-40.3-93.1-42.5-1.3-.9-3.3-3-4.4-4.8-1.8-2.8-2-4.3-1.5-12.2 1.6-24.1 11.8-45.9 29.3-62.6 12.9-12.3 26.1-19.8 41.8-23.7 9.9-2.5 12.2-2.9 21.1-3.1 5.9-.1 7.7.3 10.5 2.2m286.3 51.9c-2.3 4.5-9.4 13.5-14.3 18.3l-4.1 3.9-6-5.9c-3.3-3.3-6-6.2-6-6.5 0-1.3 8.7-5.4 19.3-9 6.2-2.1 11.5-3.9 12-3.9.4-.1 0 1.4-.9 3.1m-30 21.7c4 4.1 5.6 6.3 5 7.3-2.6 4.3-58.3 65.1-83.2 90.8l-14 14.5-10.4-10.3-10.3-10.3 16.1-15.8c26.9-26.3 87.9-82 89.9-82.1.6 0 3.7 2.7 6.9 5.9m-191.3 44.3c19 20.7 48.6 57.2 50.6 62.4.3.9-5.9 8.2-16.3 19.1-9.3 9.8-17.1 17.9-17.4 18.1-.8.3-29-21-40.8-30.9-13.8-11.6-37.2-33.2-37.2-34.4 0-1.4 46.3-47.5 47.7-47.5.7 0 6.7 6 13.4 13.2m83.4 63.8 10 10-5.8 5.7-5.7 5.8-10-10c-5.5-5.5-10-10.4-10-10.9 0-1.4 9.2-10.6 10.5-10.6.6 0 5.5 4.5 11 10m-17 17 10 10.1-5.5 5.2c-3 2.9-15.4 14.6-27.6 26.2-86.1 82.1-140.7 133.1-143.4 133.9-5.8 1.7-11.5-5-8.8-10.5.7-1.5 30.6-33.6 66.3-71.5 35.8-37.8 72.4-76.5 81.3-86.1 9-9.5 16.7-17.3 17.1-17.3.3 0 5.1 4.5 10.6 10m77.1 86.9c34.6 37.6 63.4 69.3 64.1 70.5.7 1.1 1.2 4 1.3 6.3 0 7.3-7.1 13.2-14.5 11.9-2.8-.6-15.8-12-69.7-61.3-36.5-33.3-68.1-62.3-70.3-64.5l-4-4 14.5-13.9c8-7.6 14.8-13.8 15.1-13.6.4.1 28.9 31 63.5 68.6"></path>
</svg>